<?xml version="1.0" standalone="no"?><!DOCTYPE svg PUBLIC "-//W3C//DTD SVG 1.1//EN" "http://www.w3.org/Graphics/SVG/1.1/DTD/svg11.dtd"><svg t="1731920918397" class="icon" viewBox="0 0 2048 1024" version="1.1" xmlns="http://www.w3.org/2000/svg" p-id="2408" xmlns:xlink="http://www.w3.org/1999/xlink" width="512" height="256"><path d="M1945.6 25.6c43.52 0 76.8 33.28 76.8 76.8v819.2c0 43.52-33.28 76.8-76.8 76.8H102.4c-43.52 0-76.8-33.28-76.8-76.8V102.4c0-43.52 33.28-76.8 76.8-76.8h1843.2m0-25.6H102.4C46.08 0 0 46.08 0 102.4v819.2c0 56.32 46.08 102.4 102.4 102.4h1843.2c56.32 0 102.4-46.08 102.4-102.4V102.4c0-56.32-46.08-102.4-102.4-102.4z" fill="#2c2c2c" p-id="2409"></path><path d="M1792 650.24h-66.56v-43.52-117.76c0-5.12 0-12.8-2.56-17.92-2.56-2.56-7.68-5.12-10.24-5.12-5.12 0-10.24 2.56-10.24 5.12-2.56 5.12 0 20.48 0 28.16v151.04H1638.4v-17.92-143.36c0-10.24 2.56-25.6-10.24-25.6-15.36-2.56-15.36 12.8-15.36 23.04v163.84h-64v-225.28H1612.8c0 5.12 0 10.24 2.56 12.8 15.36-5.12 30.72-15.36 46.08-15.36 15.36 0 28.16 12.8 46.08 17.92 7.68-5.12 17.92-12.8 28.16-17.92 28.16-10.24 58.88 7.68 58.88 38.4-2.56 61.44-2.56 122.88-2.56 189.44M1103.36 448c0-48.64-20.48-74.24-69.12-79.36-48.64-7.68-99.84 15.36-97.28 76.8v115.2c0 17.92 0 35.84 5.12 51.2 12.8 33.28 48.64 48.64 89.6 43.52 46.08-7.68 69.12-30.72 69.12-79.36 2.56-40.96 2.56-84.48 2.56-128m-74.24 135.68c0 5.12 0 10.24-2.56 17.92 0 2.56-5.12 7.68-7.68 7.68-2.56 0-7.68-5.12-10.24-7.68-2.56-5.12-2.56-12.8-2.56-17.92v-143.36-5.12s0-15.36 10.24-15.36c7.68 0 10.24 10.24 10.24 15.36v76.8c2.56 23.04 2.56 46.08 2.56 71.68M752.64 491.52h-74.24v-48.64c0-5.12 0-12.8-2.56-17.92 0-2.56-7.68-7.68-10.24-7.68-5.12 0-10.24 2.56-10.24 7.68-2.56 5.12-2.56 10.24-2.56 17.92v153.6c0 2.56 5.12 12.8 12.8 12.8 5.12 0 10.24-10.24 10.24-12.8 2.56-17.92 0-35.84 0-56.32h71.68c12.8 46.08-2.56 92.16-35.84 110.08-33.28 17.92-69.12 15.36-102.4-5.12-20.48-12.8-28.16-33.28-28.16-56.32 0-46.08-2.56-92.16 0-138.24 0-46.08 17.92-66.56 64-76.8 25.6-5.12 51.2-2.56 76.8 10.24 15.36 7.68 25.6 20.48 25.6 38.4 2.56 20.48 5.12 43.52 5.12 69.12M325.12 414.72v40.96c15.36-2.56 28.16-7.68 40.96-10.24 33.28-2.56 53.76 15.36 56.32 51.2 2.56 33.28 2.56 69.12 0 102.4 0 28.16-28.16 53.76-61.44 56.32-17.92 0-33.28 0-51.2-5.12-28.16-5.12-46.08-25.6-48.64-53.76-2.56-17.92-2.56-33.28-2.56-51.2h69.12c0 17.92 2.56 35.84 5.12 51.2 0 5.12 5.12 12.8 12.8 12.8 5.12 2.56 10.24-7.68 10.24-15.36 0-30.72 2.56-58.88 0-94.72 0-5.12-10.24-12.8-17.92-7.68-10.24 5.12-7.68 10.24-10.24 17.92h-64v-140.8h148.48v43.52c-33.28 2.56-58.88 2.56-87.04 2.56M1344 506.88H1280v-33.28c0-5.12-2.56-12.8-10.24-12.8-7.68 0-10.24 7.68-10.24 12.8v122.88c0 5.12 5.12 15.36 12.8 15.36s10.24-10.24 10.24-15.36c2.56-12.8 0-25.6 0-40.96h61.44c2.56 30.72 2.56 64-25.6 84.48-28.16 20.48-58.88 17.92-89.6 7.68-20.48-7.68-33.28-23.04-35.84-43.52-2.56-40.96-5.12-81.92-2.56-122.88 2.56-35.84 28.16-58.88 66.56-61.44 17.92 0 38.4 2.56 53.76 10.24 28.16 12.8 35.84 35.84 33.28 76.8M765.44 424.96v-53.76H921.6v56.32h-40.96v222.72h-74.24v-20.48-179.2-23.04h-23.04c-5.12-2.56-10.24-2.56-17.92-2.56M483.84 647.68v-143.36-5.12c0-56.32 5.12-48.64-46.08-53.76v-28.16c28.16-7.68 53.76-20.48 74.24-43.52 7.68-7.68 25.6-2.56 40.96-5.12v279.04h-69.12M1121.28 593.92h48.64v53.76h-48.64zM1523.2 483.84c0-28.16-17.92-51.2-46.08-58.88-15.36-5.12-33.28-7.68-48.64-5.12-35.84 2.56-58.88 20.48-61.44 56.32-2.56 43.52-2.56 84.48 0 128 0 23.04 17.92 38.4 38.4 43.52 17.92 2.56 35.84 5.12 53.76 5.12 35.84-2.56 56.32-23.04 61.44-58.88l2.56-58.88v-51.2m-76.8 128c-17.92 0-17.92-151.04 0-151.04 15.36 0 15.36 151.04 0 151.04" fill="#2c2c2c" p-id="2410"></path></svg>