<?xml version="1.0" standalone="no"?><!DOCTYPE svg PUBLIC "-//W3C//DTD SVG 1.1//EN" "http://www.w3.org/Graphics/SVG/1.1/DTD/svg11.dtd"><svg t="1729867028232" class="icon" viewBox="0 0 1024 1024" version="1.1" xmlns="http://www.w3.org/2000/svg" p-id="2650" xmlns:xlink="http://www.w3.org/1999/xlink" width="256" height="256"><path d="M244.736 330.752c0 17.408 13.824 31.232 31.232 31.232S307.2 348.16 307.2 330.752s-13.824-31.232-31.232-31.232c-17.408-0.512-31.232 13.824-31.232 31.232zM371.2 280.064c0 14.336 11.776 26.112 26.112 26.112s26.112-11.776 26.112-26.112-11.776-26.112-26.112-26.112-26.112 11.776-26.112 26.112z m228.352 317.952c-1.536-1.536-3.584-1.024-5.12 0.512s-1.024 3.584 0.512 5.12c0 0 2.56 2.048 6.656 5.632 0.512 0.512 1.536 1.024 2.56 1.024s2.048-0.512 2.56-1.024c1.536-1.536 1.024-3.584-0.512-5.12-4.096-4.096-6.656-6.144-6.656-6.144z m19.456 17.92c-1.536-1.536-3.584-1.536-5.12 0s-1.536 3.584 0 5.12c4.608 4.096 8.704 8.192 12.288 12.288 0.512 0.512 1.536 1.024 2.56 1.024s2.048-0.512 2.56-1.024c1.536-1.536 1.536-3.584 0-5.12-3.584-4.096-7.68-8.192-12.288-12.288z m124.416 66.56c-5.632 1.536-11.264 2.56-16.896 3.584-2.048 0.512-3.584 2.048-3.072 4.096s2.048 3.072 3.584 3.072h0.512c5.632-1.024 11.776-2.048 17.408-3.584 2.048-0.512 3.072-2.56 2.56-4.608-0.512-2.048-2.048-3.072-4.096-2.56z m64-26.624c-5.12 3.072-10.24 5.632-15.872 7.68-2.048 1.024-2.56 3.072-1.536 4.608 0.512 1.536 2.048 2.048 3.072 2.048 0.512 0 1.024 0 1.536-0.512 5.12-2.56 10.752-5.12 15.872-8.192 1.536-1.024 2.56-3.072 1.536-5.12-0.512-0.512-2.56-1.536-4.608-0.512z m-31.232 15.36c-5.632 2.56-10.752 4.608-16.384 6.144-2.048 0.512-3.072 2.56-2.048 4.608 0.512 1.536 2.048 2.56 3.584 2.56h1.024c5.632-2.048 10.752-4.096 16.896-6.144 2.048-1.024 2.56-3.072 2.048-4.608-1.536-2.56-3.072-3.584-5.12-2.56z m61.44-32.768c-5.12 3.072-10.24 6.144-14.848 9.216-1.536 1.024-2.56 3.072-1.536 5.12 0.512 1.024 2.048 2.048 3.072 2.048 0.512 0 1.024 0 2.048-0.512 5.12-3.072 10.24-5.632 15.36-9.216 1.536-1.024 2.048-3.072 1.024-5.12s-3.072-2.56-5.12-1.536z m-128 49.152h-1.024c-5.632 0-11.264-0.512-15.872-1.536-2.048-0.512-4.096 1.024-4.096 3.072-0.512 2.048 1.024 4.096 3.072 4.096 5.632 1.024 11.264 1.536 17.408 1.536h1.024c2.048 0 3.584-1.536 3.584-3.584-0.512-2.048-2.048-3.584-4.096-3.584z m233.984-96.768l1.024-2.56h1.024c5.632 0 9.728-4.608 9.728-9.728 0-5.632-4.608-9.728-9.728-9.728-5.632 0-9.728 4.608-9.728 9.728 0 2.56 1.024 4.608 2.56 6.144l-1.536 3.584c-2.048-0.512-4.096-0.512-5.632-0.512-6.656 0-12.8 2.048-17.92 5.632l-5.632-5.12c0.512-1.536 1.024-2.56 1.024-4.096 0-5.632-4.608-9.728-9.728-9.728-5.632 0-9.728 4.608-9.728 9.728 0 5.632 4.608 9.728 9.728 9.728 1.536 0 2.56-0.512 3.584-0.512l5.12 5.12c-1.024 1.536-2.048 2.56-3.072 4.096-1.536-0.512-2.56-1.024-4.096-1.024h-0.512c-2.56-0.512-5.12-1.024-7.68-1.024-15.36 0-27.648 13.824-29.184 22.528-1.024-0.512-2.048 0-3.072 0.512-2.56 1.536-5.12 3.584-7.168 5.12-1.536 1.024-2.048 3.584-1.024 5.12 0.512 1.024 2.048 1.536 3.072 1.536 0.512 0 1.536 0 2.048-0.512 2.56-1.536 4.608-3.072 7.168-5.12 3.072 8.192 12.8 17.408 25.088 19.456h3.584c6.144 0 11.776-1.536 16.384-4.096 0.512 0 0.512-0.512 1.024-0.512 1.024-0.512 2.56-1.536 3.584-2.56 5.12 3.584 11.264 5.632 17.408 5.632 16.896 0 30.208-13.824 30.208-30.208-0.512-11.264-7.68-22.016-17.92-26.624z m-45.056-3.584c-1.536 0-2.56-1.024-2.56-2.56s1.024-2.56 2.56-2.56 2.56 1.024 2.56 2.56c0.512 1.536-1.024 2.56-2.56 2.56zM945.664 576c1.536 0 2.56 1.024 2.56 2.56s-1.024 2.56-2.56 2.56-2.56-1.024-2.56-2.56c0-1.024 1.024-2.56 2.56-2.56z m-75.776 49.152c0-2.048 3.072-6.656 7.68-10.752-0.512 1.024-0.512 2.048-0.512 3.584-1.024 6.144-0.512 13.824 2.048 20.48-5.632-4.608-9.216-10.24-9.216-13.312z m22.528 17.408h-1.536c-6.656-5.632-8.192-15.872-6.656-23.552 1.024-6.144 3.584-9.216 4.096-9.728 0.512 0 1.024-0.512 1.024-1.024 1.024 0 2.048-0.512 3.072-0.512-2.048 4.096-3.584 9.728-3.584 15.36 0.512 7.68 3.584 14.336 9.216 18.432-1.536 0.512-3.584 1.024-5.632 1.024z m14.336-4.096c-8.192-3.584-10.24-10.24-10.752-15.36-0.512-6.656 2.048-11.776 4.096-13.824 0.512 0 1.024 0.512 1.536 0.512-1.024 3.072-1.536 5.632-1.536 8.704 0 7.168 2.56 14.336 7.168 19.456l-0.512 0.512z m24.064 3.072c-12.8 0-23.04-10.24-23.04-23.04s10.24-23.04 23.04-23.04 23.04 10.24 23.04 23.04c0 12.288-10.24 23.04-23.04 23.04z" p-id="2651"></path><path d="M915.456 613.376c0 2.56 2.048 5.12 5.12 5.12s5.12-2.048 5.12-5.12c0-2.56-2.048-5.12-5.12-5.12s-5.12 2.56-5.12 5.12c0 3.072 0 0 0 0z m21.504-2.048c0 2.56 2.048 5.12 5.12 5.12s5.12-2.048 5.12-5.12c0-2.56-2.048-5.12-5.12-5.12s-5.12 2.56-5.12 5.12c0 3.072 0 0 0 0zM748.544 260.096c4.608-0.512 20.992 8.704 30.72 24.576 5.12 8.704 10.24 21.504 2.56 34.816-2.048 3.584-1.024 8.192 2.56 10.24 0.512 0.512 1.024 0.512 2.048 1.024 3.072 1.024 6.656-0.512 8.192-3.584 8.704-15.36 7.68-33.28-3.072-50.176-11.264-17.408-32.256-32.256-44.544-31.744-4.096 0.512-7.168 3.584-7.168 8.192 1.536 3.584 5.12 6.656 8.704 6.656z m14.848-37.376c4.608 0.512 33.28 9.216 50.176 32.256 12.8 16.896 15.872 37.888 10.24 61.44-1.024 4.096 1.536 8.192 5.12 9.216 4.096 1.024 8.192-1.536 9.216-5.12 7.168-28.672 3.072-53.248-12.8-74.24-19.456-26.112-51.712-37.376-61.952-37.888-4.096 0-7.68 3.072-7.68 7.168 0.512 3.072 3.584 6.656 7.68 7.168zM235.52 632.32c-51.2-14.848-41.984-76.8-41.472-79.36 0.512-4.096-2.048-8.192-6.144-8.704-4.096-0.512-8.192 2.048-8.704 6.144 0 0.512-3.072 19.456 1.536 40.448 6.656 28.672 24.064 48.128 50.176 55.808h2.048c3.584 0 6.656-2.048 7.168-5.12 2.048-4.096-0.512-8.192-4.608-9.216z" p-id="2652"></path><path d="M646.144 693.248l12.288-14.336 0.512 1.024c1.536 2.048 3.072 4.096 5.12 5.632l-17.92 7.68zM779.776 540.16l28.16-11.264-123.904 147.456-12.288 5.632a40.925 40.925 0 0 1-6.656-6.656c-0.512-0.512-1.536-1.024-2.048-1.536L779.776 540.16zM768 434.688v94.72l-200.192 59.904-5.12-106.496L768 434.688z m-88.576-156.672c35.328 0 63.488 28.672 63.488 63.488 0 35.328-28.672 63.488-63.488 63.488s-63.488-28.672-63.488-63.488c-0.512-35.328 28.16-63.488 63.488-63.488z m-72.192 92.672c11.776 28.16 39.424 48.64 72.192 48.64h5.12l11.776 17.408-142.336 33.28c-3.584 1.024-5.632 4.096-5.632 7.168l4.608 93.696L438.784 384l168.448-13.312z m-240.64 190.976c0-20.992-8.192-40.448-22.016-54.272l81.408-116.736 114.688 187.392-75.776-44.032c-3.072-1.536-6.656-1.024-9.216 1.536L345.088 665.088l-18.944-35.328c24.064-12.8 40.448-38.4 40.448-68.096z m-78.336 64c-35.328 0-63.488-28.672-63.488-63.488 0-35.328 28.672-63.488 63.488-63.488 35.328 0 63.488 28.672 63.488 63.488 0.512 34.816-28.16 63.488-63.488 63.488zM83.456 770.56c21.504-8.704 28.16-14.336 39.936-23.04 34.816-25.088 51.712-64 51.712-64 12.288-33.28 8.704-69.12-9.728-106.496l0.512-0.512-1.536-3.072c-28.672-47.616-60.928-101.888-60.928-164.352 0-136.192 110.592-246.784 246.784-246.784 115.2 0 211.456 72.192 238.592 195.584l13.824-1.024c-13.312-60.416-40.448-104.448-84.992-144.384-47.616-43.008-105.472-65.536-167.936-65.536-70.144 0-136.192 27.136-185.344 76.8-49.664 49.664-76.8 115.2-76.8 185.344 0 63.488 30.208 117.76 58.88 165.376 1.024 2.048 2.048 4.096 3.072 5.632 17.92 34.816 21.504 67.584 10.752 97.792-22.016 60.416-96.768 89.088-97.28 89.6 0 0 32.768 39.936 58.368 54.272 30.72 17.408 106.496 55.296 295.936 55.296s342.528-37.888 342.528-84.48c-0.512-27.136-52.736-51.2-133.632-67.072l1.024-8.192 64.512-28.16c1.024-0.512 2.048-1.024 2.56-2.048l143.36-170.496c2.048-2.56 2.048-6.144 0.512-8.704-2.048-2.56-5.632-3.584-8.192-2.56l-46.592 18.432v-98.304c0-2.048-1.024-4.096-2.56-5.632-1.536-1.536-4.096-2.048-6.144-1.536l-62.464 14.848-11.264-16.896c32.768-9.216 57.344-39.424 57.344-75.264 0-43.008-34.816-77.824-77.824-77.824-43.008 0-77.824 34.816-77.824 77.824 0 5.12 0.512 10.24 1.536 15.36l-62.464 5.12-13.824 0.512-100.352 7.68h-1.024l-1.536 0.512c-0.512 0-1.024 0.512-1.536 1.024l-1.536 1.536-87.04 124.416c-12.8-9.216-28.16-14.336-45.056-14.336-43.008 0-77.824 34.816-77.824 77.824 0 43.008 34.816 77.824 77.824 77.824 8.192 0 16.384-1.536 24.576-4.096l22.016 40.96-37.888 44.032c-1.536 1.536-2.048 4.096-1.536 6.144s16.384 8.192 13.824 8.704C209.92 773.632 98.304 772.096 83.456 770.56z m230.912-47.104l34.816-40.448 0.512-0.512 113.152-132.608 87.552 50.688-144.384 167.936-91.648-45.056z m292.864 48.128l-198.656 65.024 5.632-54.272 197.632-59.904-4.608 49.152z m-178.176-8.704l136.192-158.208 188.416-56.32-98.304 112.64c-3.584-4.608-7.168-9.216-11.264-13.824-1.536-1.536-3.584-1.536-5.12-0.512-1.536 1.536-1.536 3.584-0.512 5.12 4.096 4.608 7.68 9.216 10.752 13.312 0.512 0.512 1.024 1.024 1.536 1.024l-34.816 39.936-186.88 56.832z" p-id="2653"></path></svg>