<?xml version="1.0" standalone="no"?><!DOCTYPE svg PUBLIC "-//W3C//DTD SVG 1.1//EN" "http://www.w3.org/Graphics/SVG/1.1/DTD/svg11.dtd"><svg t="1734955558273" class="icon" viewBox="0 0 1039 1024" version="1.1" xmlns="http://www.w3.org/2000/svg" p-id="6859" xmlns:xlink="http://www.w3.org/1999/xlink" width="202.9296875" height="200"><path d="M325.818182 785.066667c-78.351515-12.024242-117.527273-32.969697-140.412121-76.412122-8.921212-16.290909-8.921212-17.066667-8.921213-196.654545 0-178.036364 0-180.751515 8.533334-196.266667 10.472727-19.781818 34.133333-41.115152 58.957576-53.915151 41.50303-20.557576 48.09697-21.333333 311.854545-21.333334h243.587879l-1.163637 18.618182-1.163636 18.230303-193.939394 1.939394-193.939394 1.939394-18.618182 10.860606c-12.024242 6.981818-21.333333 16.290909-27.151515 27.151515-8.533333 16.290909-8.533333 17.066667-8.533333 192.775758 0 171.442424 0.387879 176.872727 8.145454 192 4.266667 8.533333 15.515152 20.945455 24.436364 27.151515l16.678788 11.636364h134.206061c131.490909 0 134.981818 0 148.169697-8.533334 27.539394-17.066667 29.090909-23.272727 30.254545-126.060606l1.163636-92.315151h-236.993939v-38.787879h388.654545l-1.551515 109.769697c-1.551515 101.236364-2.327273 110.933333-10.084848 130.715152-8.921212 22.884848-29.090909 45.381818-49.648485 55.466666-24.436364 12.412121-60.121212 14.351515-267.248485 13.963637-112.872727-0.387879-209.842424-1.163636-215.272727-1.939394z" fill="#dbdbdb" p-id="6860"></path></svg>