<?xml version="1.0" standalone="no"?><!DOCTYPE svg PUBLIC "-//W3C//DTD SVG 1.1//EN" "http://www.w3.org/Graphics/SVG/1.1/DTD/svg11.dtd"><svg t="1729825667378" class="icon" viewBox="0 0 1024 1024" version="1.1" xmlns="http://www.w3.org/2000/svg" p-id="22505" data-darkreader-inline-fill="" xmlns:xlink="http://www.w3.org/1999/xlink" width="256" height="256"><path d="M529.31401 67.277295c0 7.172947 1.731401 30.917874 3.710145 52.684058 5.194203 58.62029 6.430918 53.178744-11.377778 53.178744-10.141063 0-28.197101-3.710145-55.899517-11.130435-22.508213-6.183575-41.30628-10.883092-41.800966-10.388406-0.494686 0.494686-0.742029 106.852174-0.494686 236.21256l0.742029 235.470532 40.069565-24.239614 40.069565-23.99227 0.742029-16.077295 0.742029-16.077295 92.753623-0.742029 93.000966-0.494686 42.790339 25.971015c23.497585 14.345894 43.285024 25.971014 43.77971 25.971014 0.494686 0 0.989372-99.679227 0.989372-221.37198s-0.494686-221.371981-1.236715-221.371981-19.292754 4.94686-41.553623 11.130435L695.775845 173.140097h-67.277294c-36.854106 0-67.029952-0.989372-67.029952-1.978744 0-1.236715 19.540097-21.518841 43.285024-45.016425 23.744928-23.744928 43.285024-44.027053 43.285024-45.016426 0-0.989372-1.978744-1.978744-4.452174-1.978744s-14.84058-2.720773-27.702415-5.936231c-37.843478-9.399034-78.407729-18.798068-82.61256-18.798068-3.215459 0-3.957488 2.720773-3.957488 12.861836z m162.75169 173.140096l-0.742029 45.263768h-185.507246l-0.742029-39.574879c-0.247343-21.766184 0-42.048309 0.742029-45.263768l1.236715-5.441546h185.507246l-0.494686 45.016425z m0.494686 118.229952v49.468599l-93.248309-0.494686-93.495652-0.742029-0.742029-48.973913-0.494686-48.72657h187.980676v49.468599z m0 116.251208v44.521739l-93.000966-0.494686-92.753623-0.742029v-42.790338c0-23.250242 0.247343-43.037681 0.247343-43.77971 0-0.742029 41.800966-1.236715 92.753623-1.236715H692.560386v44.521739zM145.932367 475.887923V759.342995h5.936232c9.399034 0 50.457971-21.766184 61.09372-32.401932L222.608696 717.294686v-71.976812l26.713043 0.742029 26.465701 0.742029V688.108213l12.119806 10.883091c12.119807 11.130435 40.811594 26.4657 55.404831 29.433817l7.914976 1.731401v-536.7343l-37.101449 10.883092C279.744928 214.446377 274.798068 215.188406 248.332367 215.188406c-26.218357 0-31.165217-0.742029-62.330435-10.141063-18.550725-5.688889-35.370048-10.883092-36.854106-11.377778-2.47343-0.989372-3.215459 56.394203-3.215459 282.218358zM274.550725 427.903382v192.185507c0 1.236715-11.625121 2.226087-25.971015 2.720773l-25.971014 0.742029V237.449275h51.942029v190.454107z" p-id="22506"></path><path d="M654.469565 592.881159c11.377778 29.928502 33.143961 99.679227 33.143962 106.110145 0 2.720773-6.678261 3.462802-37.10145 3.462802-43.285024 0-39.080193 4.699517-33.391304-38.338164 1.978744-15.087923 3.710145-32.401932 3.710145-38.585507v-11.377778l-38.83285-7.914976c-21.518841-4.452174-42.048309-8.409662-45.511111-9.151691l-6.430918-1.236715-1.484058 37.843479c-0.742029 20.776812-2.720773 44.769082-4.452174 53.178744l-2.720773 15.582608h-97.947826l-0.989372 10.141063c-0.494686 5.441546-0.494686 10.388406 0.247343 11.130435 0.494686 0.494686 22.013527 0.989372 47.984541 0.989372h46.747826l-1.731401 10.388406c-5.688889 33.143961-34.380676 95.474396-59.857005 129.855072-17.066667 23.250242-57.136232 63.814493-80.13913 81.128503-29.433816 22.26087-44.274396 34.133333-43.532367 34.875362 1.978744 1.978744 77.418357-23.497585 102.152657-34.380676 53.178744-23.250242 95.969082-57.136232 123.671497-98.19517 16.324638-24.239614 33.638647-63.814493 42.295652-96.958454 5.936232-22.755556 7.667633-26.713043 11.872464-26.713043 8.904348 0 10.883092 3.462802 18.303382 32.154589 13.851208 53.426087 40.069565 105.862802 70.492753 140.985507 21.766184 24.981643 79.149758 76.923671 84.838648 76.676329 0.989372-0.247343 9.89372-10.388406 19.292753-22.508213 9.646377-12.36715 25.971014-33.391304 36.606764-46.747826 10.388406-13.356522 19.045411-24.7343 19.04541-25.476328 0-0.742029-9.151691-4.452174-20.282125-8.162319-48.72657-16.077295-94.732367-41.800966-142.716909-80.13913-27.207729-21.766184-67.524638-61.341063-65.545893-64.556522 0.742029-1.236715 41.30628-2.226087 90.280193-2.226087H811.285024v-22.26087h-55.652174c-30.670531 0-55.652174-0.742029-55.652174-1.978744 0-0.989372 15.087923-13.356522 33.391305-27.702415 18.303382-14.345894 33.391304-26.4657 33.391304-27.20773-0.247343-1.731401-110.809662-67.771981-115.261836-68.761352-2.47343-0.494686-1.484058 3.957488 2.968116 16.077294z" p-id="22507"></path></svg>