<?xml version="1.0" standalone="no"?><!DOCTYPE svg PUBLIC "-//W3C//DTD SVG 1.1//EN" "http://www.w3.org/Graphics/SVG/1.1/DTD/svg11.dtd"><svg t="1731560855092" class="icon" viewBox="0 0 1024 1024" version="1.1" xmlns="http://www.w3.org/2000/svg" p-id="3355" xmlns:xlink="http://www.w3.org/1999/xlink" width="256" height="256"><path d="M282.82546 420.2299c8.55791 0 16.286941-3.391237 21.839401-9.002025 5.541203-5.501294 8.979512-13.244652 8.979512-21.784142 0-8.302083-3.439332-16.037255-8.979512-21.667485-5.552459-5.65786-13.280468-9.098215-21.839401-9.098215-8.56405 0-16.241916 3.440355-21.823028 9.098215-5.585205 5.630231-9.020444 13.365402-9.020444 21.667485 0 8.53949 3.435239 16.283872 9.020444 21.784142C266.583544 416.838663 274.261411 420.2299 282.82546 420.2299z" fill="#2c2c2c" p-id="3356"></path><path d="M308.859393 460.830597 282.82546 460.830597 256.83553 460.830597 256.83553 551.068807 308.859393 623.00007 308.859393 552.017412Z" fill="#2c2c2c" p-id="3357"></path><path d="M420.61671 369.823883c7.398504 0.041956 10.249435 0.293689 16.9613 1.285273l4.151553-44.954865c-7.193843-1.636267-15.721053-2.427282-24.877597-2.427282-25.039279 0-42.213427 9.779737-53.152571 25.146727-10.882861 15.267728-15.551184 36.146245-15.551184 58.46353l0 26.717502 0 26.77583-8.741082 0-8.671497 0 0 21.842471 0 21.968337 8.671497 0 8.741082 0 0 69.315692 0 69.211315 25.988908 0 26.02677 0 0-69.211315 0-69.315692 20.762883 0 20.803815 0 0-21.968337 0-21.842471-20.803815 0-20.762883 0 0-23.084765L400.163889 414.749072c0-7.394411-0.617054-18.676361 1.550309-28.083615C403.945005 377.312438 409.06563 369.823883 420.61671 369.823883z" fill="#2c2c2c" p-id="3358"></path><path d="M583.193459 460.830597l0 8.56405 0 8.567119c-6.318916-7.538697-14.306844-13.272281-23.080671-17.131169-8.755408-3.933589-18.334577-5.990434-27.807323-5.990434-26.207895 0-46.977941 11.951193-61.262272 30.055526-14.276145 18.020422-21.995967 42.071188-21.995967 66.182328 0 24.691355 7.622608 49.193399 21.995967 67.553559 14.283308 18.34174 35.231409 30.53034 61.968353 30.53034 9.513678 0 19.028379-2.056845 27.628244-5.948479 8.645914-3.821025 16.23373-9.513678 21.806655-16.770965l0.361227 0 0.385786 0 0 8.417717 0 8.309246 25.595958 0 25.668613 0 0-91.153046 0-91.185792L608.789417 460.830597 583.193459 460.830597zM576.669882 586.658374c-7.528464 9.777691-18.379603 16.424064-31.766494 16.424064-13.344936 0-24.12956-6.646374-31.535227-16.424064-7.445576-9.763364-11.56643-22.647813-11.56643-34.877345 0-12.269441 4.119831-24.988114 11.56643-34.57547 7.405667-9.699919 18.190291-16.279778 31.535227-16.279778 13.386892 0 24.239054 6.579859 31.766494 16.279778 7.535627 9.588379 11.730159 22.307052 11.730159 34.57547C588.400041 564.010561 584.205509 576.895009 576.669882 586.658374z" fill="#2c2c2c" p-id="3359"></path><path d="M951.044408 456.098829c-3.64911-0.807389-7.345292-1.258667-11.063987-1.258667-9.697873 0-18.378579 2.297322-26.038026 6.492878-7.596002 4.186346-14.087856 10.488889-19.261693 18.418488l-0.39295 0-0.393973 0 0-9.458419 0-9.462512-25.988908 0-26.048259 0 0 91.185792 0 91.153046 26.048259 0 25.988908 0 0-40.996716 0-41.079604c0-14.062274 0.963954-29.133527 6.358825-40.626279 5.451152-11.609409 15.401782-19.541055 33.401738-19.541055 3.917216 0 14.782681 0.436952 23.701818 2.445702l4.158716-44.045145C958.173782 458.032878 954.618816 456.897008 951.044408 456.098829z" fill="#2c2c2c" p-id="3360"></path><path d="M757.511623 454.841186c-9.232269 0-18.458397 1.596358-26.687826 5.239328-8.229428 3.618411-15.476483 9.314133-20.803815 17.48114l-0.418532 0-0.335644 0 0-8.404414 0-8.326643-26.006304 0-26.054399 0 0 91.185792 0 91.153046 26.054399 0 26.006304 0 0-45.089941 0-45.166689c0-10.973936 0.076748-25.047466 4.02671-36.406165 3.930519-11.423167 11.694343-20.056801 27.15036-20.056801 14.699794 0 21.739117 7.033184 25.12626 16.845667 3.360538 9.810437 3.108804 22.36538 3.108804 33.339316l0 48.26219 0 48.2714 25.968441 0 26.040073 0 0-55.67195 0-55.766095c0-21.083178-3.565199-40.432875-13.184277-54.345746C797.85854 463.47175 782.03311 454.841186 757.511623 454.841186z" fill="#2c2c2c" p-id="3361"></path><path d="M65.674769 302.865889 367.957373 721.134111 379.76428 721.134111 77.474512 302.865889Z" fill="#2c2c2c" p-id="3362"></path></svg>