<?xml version="1.0" standalone="no"?><!DOCTYPE svg PUBLIC "-//W3C//DTD SVG 1.1//EN" "http://www.w3.org/Graphics/SVG/1.1/DTD/svg11.dtd"><svg t="1731391148072" class="icon" viewBox="0 0 1024 1024" version="1.1" xmlns="http://www.w3.org/2000/svg" p-id="3331" xmlns:xlink="http://www.w3.org/1999/xlink" width="256" height="256"><path d="M306.66 512.79c1.33-4 3-6 5-6 4.66 0 7 10.5 7 31.5s-7.84 71.84-23.5 152.5c-15.67 80.67-24.67 129.33-27 146-2.34 16.66-7.84 25-16.5 25-14.67 0-27-7.5-37-22.5s-18.67-33.83-26-56.5c-7.34-22.66-11-57.5-11-104.5s1.16-80.33 3.5-100c2.33-19.66 3.5-33.5 3.5-41.5 0-33.33-9.67-55-29-65-6.67-3.33-10-13-10-29 0-25.33 3-46.33 9-63 6-16.66 12.66-25 20-25 3.33 0 5.33 6.17 6 18.5 0.66 12.34 3.33 23.34 8 33 4.66 9.67 14 18.84 28 27.5 30 19.34 45 39.67 45 61 0 14.67-7.34 27.67-22 39-24.67 19.34-37 55-37 107s6.33 78 19 78c3.33 0 6.5-1.33 9.5-4 3-2.66 9.33-14 19-34 9.66-20 17.83-41 24.5-63l32-105z m-43-352c14 0 34 11.17 60 33.5 26 22.34 39 41.84 39 58.5 0 8.67-2.84 16.5-8.5 23.5-5.67 7-10.84 10.5-15.5 10.5-4.67 0-8.34-0.33-11-1-19.34-6.66-36.34-10-51-10-8.67 0-24.34 6-47 18-3.34 1.34-6.34 2-9 2-2.67 0-4-1.83-4-5.5 0-3.66 6.66-11.5 20-23.5 13.33-12 20-22.33 20-31 0-3.33-2-10-6-20s-6-20-6-30c0-16.66 6.33-25 19-25z m243 180c52.66-18.66 88-28 106-28 11.33 0 17 9 17 27 0 7.34-3.17 13.67-9.5 19-6.34 5.34-13.17 8.34-20.5 9-28 2-71.67 13.5-131 34.5-59.34 21-100 37.84-122 50.5-12 6.67-23 10-33 10s-21.67-6.5-35-19.5c-13.34-13-20-23.5-20-31.5 0-6 5.33-9 16-9 28 0 60.5-7.33 97.5-22 37-14.66 60.83-34 71.5-58-25.34 0-44.67-2.66-58-8-13.34-5.33-20-12.16-20-20.5 0-8.33 8.5-15.83 25.5-22.5 17-6.66 35.83-16 56.5-28 2-15.33 3-29 3-41 0-37.33-7.67-62.66-23-76-4.67-4-7-9-7-15s2.66-10.83 8-14.5c5.33-3.66 11.5-5.5 18.5-5.5s22 7.5 45 22.5 34.5 29.5 34.5 43.5c0 3.34-0.67 6.67-2 10-4.67 11.34-7.34 28-8 50 14-6 25-11 33-15s16-6 24-6c18.66 0 28 8 28 24 0 11.34-4.67 20.67-14 28-56 42.67-83 73.34-81 92z m14 383c34.66-10.66 61.33-21.16 80-31.5 18.66-10.33 30.5-20.33 35.5-30 5-9.66 8.5-14.5 10.5-14.5 4.66 0 7 9.34 7 28 0 18.67-3.17 33.84-9.5 45.5-6.34 11.67-14.84 20-25.5 25-10.67 5-37.34 14.84-80 29.5-58.67 19.34-117.67 43-177 71-4 2-8 3-12 3-10.67 0-24-10.5-40-31.5s-24-35.5-24-43.5 5.66-11 17-9c6.66 1.34 16.66 2 30 2 13.33 0 31.33-2.33 54-7-8-10-12-22.33-12-37 0-24 12-54.33 36-91 2-2.66 3-5.5 3-8.5s-1.67-4.5-5-4.5c-3.34 0-6.34 0.5-9 1.5-2.67 1-5 1.5-7 1.5-5.34 0-13.5-9-24.5-27s-16.5-36.33-16.5-55c0-18.66 1.83-37.16 5.5-55.5 3.66-18.33 9.16-27.5 16.5-27.5 3.33 0 7.16 1.67 11.5 5 4.33 3.34 9.83 5 16.5 5 6.66 0 25.5-8.66 56.5-26 31-17.33 49.33-29.16 55-35.5 5.66-6.33 12.83-9.5 21.5-9.5 8.66 0 23.66 5.17 45 15.5 21.33 10.34 32 23.17 32 38.5 0 6.67-2 11.67-6 15-11.34 8-20.34 18.17-27 30.5-6.67 12.34-10 21.17-10 26.5 0 5.34 2.33 11.67 7 19 2 2.67 3 6 3 10s-7.34 8.67-22 14c-14.67 5.34-43.67 14-87 26 28 9.34 57.66 14.67 89 16 8 0.67 14.5 2.67 19.5 6 5 3.34 7.5 7.5 7.5 12.5s-2.34 9.84-7 14.5c-23.34 23.34-42.67 51-58 83z m-34-190c12.66-25.33 19-41.33 19-48 0-6.66-3.34-10-10-10-6.67 0-19.17 4-37.5 12-18.34 8-34.5 12-48.5 12 0 24 2 43.67 6 59 36.66-12.66 60.33-21 71-25z m-39 203c35.33-47.33 53-77.5 53-90.5s-4.34-19.5-13-19.5c-8.67 0-19 8-31 24s-24 48.34-36 97c7.33 0 16.33-3.66 27-11z m311-230c12-1.33 24-3.5 36-6.5s20.33-4.5 25-4.5c11.33 0 23.5 9.5 36.5 28.5s19.5 32.5 19.5 40.5-4.84 19.17-14.5 33.5c-9.67 14.34-31.5 51.17-65.5 110.5-34 59.34-64.34 105-91 137-26.67 32-53.67 54.5-81 67.5-27.34 13-49.67 19.5-67 19.5-6 0-9-1.67-9-5 0-3.34 2.33-7 7-11 28-24 59.5-60.5 94.5-109.5s66.16-99.83 93.5-152.5c27.33-52.66 41-85.66 41-99 0-8-3.84-12-11.5-12-7.67 0-20 2.17-37 6.5-17 4.34-33 12.84-48 25.5-15 12.67-26.84 19-35.5 19-14 0-21-9.66-21-29 0-11.33 2.83-21.83 8.5-31.5 5.66-9.66 17.66-24.16 36-43.5 18.33-19.33 34-38.66 47-58 13-19.33 19.5-32 19.5-38s-2.34-9-7-9c-10 0-33 10.34-69 31-7.34 4-13.34 6-18 6-9.34 0-15.67-6.5-19-19.5-3.34-13-5-23.66-5-32 0-8.33 3.33-14.5 10-18.5 17.33-10 33.66-30.83 49-62.5 15.33-31.66 23-64.83 23-99.5 0-17.33-2.17-28.66-6.5-34-4.34-5.33-6.5-10-6.5-14s1.83-7.83 5.5-11.5c3.66-3.66 7.5-5.5 11.5-5.5 25.33 0 48.16 8.84 68.5 26.5 20.33 17.67 30.5 33.17 30.5 46.5 0 6.67-2.67 12.67-8 18-38.67 44-66.67 90.67-84 140 12-2 27.66-8.33 47-19 8-4 17-6 27-6s22.5 8.67 37.5 26c15 17.34 22.5 30.34 22.5 39 0 8.67-2.67 15-8 19-16.67 12-34 27.84-52 47.5-18 19.67-28.67 34.17-32 43.5z" p-id="3332"></path></svg>