<?xml version="1.0" standalone="no"?><!DOCTYPE svg PUBLIC "-//W3C//DTD SVG 1.1//EN" "http://www.w3.org/Graphics/SVG/1.1/DTD/svg11.dtd"><svg t="1729805253621" class="icon" viewBox="0 0 1024 1024" version="1.1" xmlns="http://www.w3.org/2000/svg" p-id="8018" data-darkreader-inline-fill="" xmlns:xlink="http://www.w3.org/1999/xlink" width="256" height="256"><path d="M46.08 47.80544C39.25504 55.7824 35.84 110.63808 35.84 227.328v167.552h542.72l44.37504 52.85888c24.74496 28.92288 44.37504 58.84416 44.37504 67.81952 0 7.97696-20.48 37.89824-45.22496 66.82112l-45.22496 51.86048H35.84v160.56832c0 90.75712 3.41504 168.5504 8.53504 179.52256C52.90496 992.2816 65.70496 993.28 343.04 993.28c158.72 0 295.25504-2.99008 302.08-5.98528 7.68-2.99008 92.16-104.71936 188.58496-224.39936C983.04 576.39424 1008.64 540.4928 1008.64 514.56s-18.77504-54.85568-116.90496-177.52576c-64-80.78336-145.06496-181.51424-180.90496-224.39936L645.97504 35.84h-294.4C133.12 35.84 53.76 38.83008 46.08 47.80544z" p-id="8019"></path></svg>